<svg width="33" height="33" viewBox="0 0 33 33" fill="none" xmlns="http://www.w3.org/2000/svg"><path d="M-80.2865 16.5104L-95.6458 31.8646L-111 16.5104L-95.6458 1.15104L-80.2865 16.5104ZM-42.6198 16.5104L-57.974 31.8646L-73.3333 16.5104L-57.974 1.15104L-42.6198 16.5104ZM-4.94791 16.5104L-20.3073 31.8646L-35.6615 16.5104L-20.3073 1.15104L-4.94791 16.5104ZM2.57812 16.5104L16.7865 30.7135L30.9896 16.5104L16.7865 2.30208L2.57812 16.5104ZM16.7865 33.0156L0.276047 16.5104L16.7865 0L33 16.5L16.7865 33.0156ZM39.0885 16.5104L53.2969 30.7135L67.5 16.5104L53.2969 2.30208L39.0885 16.5104ZM53.2969 33.0156L36.7865 16.5104L53.2969 0L69.8021 16.5104L53.2969 33.0156Z" fill="#C99A0C"/></svg>