<svg width="33" height="33" viewBox="0 0 33 33" fill="none" xmlns="http://www.w3.org/2000/svg">
<path d="M-43.2865 16.5104L-58.6458 31.8646L-74 16.5104L-58.6458 1.15104L-43.2865 16.5104ZM-5.61979 16.5104L-20.974 31.8646L-36.3333 16.5104L-20.974 1.15104L-5.61979 16.5104ZM32.0521 16.5104L16.6927 31.8646L1.33855 16.5104L16.6927 1.15104L32.0521 16.5104ZM39.5781 16.5104L53.7865 30.7135L67.9896 16.5104L53.7865 2.30208L39.5781 16.5104ZM53.7865 33.0156L37.276 16.5104L53.7865 0L70 16.5L53.7865 33.0156ZM76.0885 16.5104L90.2969 30.7135L104.5 16.5104L90.2969 2.30208L76.0885 16.5104ZM90.2969 33.0156L73.7865 16.5104L90.2969 0L106.802 16.5104L90.2969 33.0156Z" fill="#C99A0C"/>
</svg>
