<svg width="252" height="125" viewBox="0 0 252 125" fill="none" xmlns="http://www.w3.org/2000/svg">
<path d="M49.3994 68.4994L77.9994 42.8994L126.599 97.2994L97.6994 122.699L59.1994 79.7994" stroke="#C4950C" stroke-width="2" stroke-miterlimit="10"/>
<path d="M89.7998 43.299L104.3 31.999L136.1 36.199L188.9 36.299L197.6 42.899V51.799L191.1 59.499H150.8" stroke="#C4950C" stroke-width="2" stroke-miterlimit="10"/>
<path d="M200.8 40.3994L222.8 20.2994L232.5 19.3994L239.6 26.4994V35.5994L192.8 87.2994L128.1 88.0994" stroke="#C4950C" stroke-width="2" stroke-miterlimit="10"/>
<path d="M107.9 91.4992L95.8996 90.6992L95.0996 103.499L107 104.199L107.5 95.6992" stroke="#C4950C" stroke-width="2" stroke-miterlimit="10"/>
<path d="M240.8 105.6C239.2 104 238.2 101.3 237.6 98.7998C237.1 101.3 236 104 234.4 105.6C232.8 107.2 230.1 108.2 227.6 108.8C230.1 109.3 232.8 110.4 234.4 112C236 113.6 237 116.3 237.6 118.8C238.1 116.3 239.2 113.6 240.8 112C242.4 110.4 245.1 109.4 247.6 108.8C245.1 108.2 242.4 107.2 240.8 105.6Z" stroke="#C4950C" stroke-width="2" stroke-miterlimit="10"/>
<path d="M29.2988 18.2996C26.3988 15.3996 24.3988 10.1996 23.3988 5.59961C22.3988 10.2996 20.3988 15.3996 17.4988 18.2996C14.5988 21.1996 9.39883 23.1996 4.79883 24.1996C9.49883 25.1996 14.5988 27.1996 17.4988 30.0996C20.3988 32.9996 22.3988 38.1996 23.3988 42.7996C24.3988 38.0996 26.3988 32.9996 29.2988 30.0996C32.1988 27.1996 37.3988 25.1996 41.9988 24.1996C37.3988 23.2996 32.1988 21.1996 29.2988 18.2996Z" stroke="#C4950C" stroke-width="2" stroke-miterlimit="10"/>
</svg>
