<svg width="50" height="30" viewBox="0 0 50 30" fill="none" xmlns="http://www.w3.org/2000/svg">
<g clip-path="url(#clip0_23_28)">
<path d="M1103.19 -72.4999H-68.5V247.313H1103.19V-72.4999Z" fill="none"/>
<path d="M19.7747 8.73555C19.7747 12.3524 18.4183 15.9345 15.7057 19.4819C12.993 23.0988 9.237 26.0896 4.43768 28.4545L3.91601 26.9939C7.18512 24.9768 9.79345 22.7858 11.741 20.4209C13.6886 18.056 14.7667 15.6911 14.9753 13.3262C14.1407 14.0218 13.2712 14.613 12.367 15.0999C11.4628 15.6563 10.5238 15.9345 9.55 15.9345C8.298 15.9345 7.32423 15.5868 6.62867 14.8912C5.93312 14.2652 5.58534 13.3958 5.58534 12.2829C5.58534 10.7527 6.03745 9.25722 6.94167 7.79655C7.91545 6.33589 9.13267 5.11867 10.5933 4.14489C12.054 3.10156 13.5842 2.57989 15.184 2.57989C16.7838 2.57989 17.9314 3.20589 18.627 4.45789C19.3921 5.70989 19.7747 7.13578 19.7747 8.73555ZM46.0617 8.73555C46.0617 12.3524 44.7054 15.9345 41.9927 19.4819C39.2801 23.0988 35.5241 26.0896 30.7247 28.4545L30.2031 26.9939C33.4722 24.9768 36.0805 22.7858 38.0281 20.4209C39.9756 18.056 41.0537 15.6911 41.2624 13.3262C40.4277 14.0218 39.5583 14.613 38.6541 15.0999C37.7499 15.6563 36.8109 15.9345 35.8371 15.9345C34.5851 15.9345 33.6113 15.5868 32.9157 14.8912C32.2202 14.2652 31.8724 13.3958 31.8724 12.2829C31.8724 10.7527 32.3245 9.25722 33.2287 7.79655C34.2025 6.33589 35.4197 5.11867 36.8804 4.14489C38.3411 3.10156 39.8713 2.57989 41.4711 2.57989C43.0708 2.57989 44.2185 3.20589 44.9141 4.45789C45.6792 5.70989 46.0617 7.13578 46.0617 8.73555Z" fill="#C4950C"/>
</g>
<defs>
<clipPath id="clip0_23_28">
<rect width="1600" height="4464.38" fill="white" transform="translate(-476 -2865)"/>
</clipPath>
</defs>
</svg>
