<svg width="248" height="48" viewBox="0 0 248 48" fill="none" xmlns="http://www.w3.org/2000/svg">
<path d="M16.222 4.88175C14.5345 4.88175 12.9095 4.96509 11.2637 4.96509C9.76367 4.96509 8.01367 4.92342 6.82617 4.84009L6.65951 5.54842C8.65951 5.54842 8.97201 5.92342 8.97201 6.84009C8.97201 7.25675 8.84701 7.79842 8.68034 8.46509L4.18034 25.3401C3.53451 27.8193 3.24284 28.1734 0.680339 28.2776L0.513672 28.9859C1.74284 28.8818 3.43034 28.8401 5.22201 28.8401C6.78451 28.8401 8.36784 28.8818 9.65951 28.9651L9.80534 28.2776C7.76367 28.2151 7.45117 27.8818 7.45117 27.0484C7.45117 26.6109 7.59701 26.0484 7.78451 25.3401L9.40951 19.2776H10.1803C17.7845 19.2776 23.2428 15.3818 23.2428 10.0276C23.2428 6.92342 20.8053 4.88175 16.222 4.88175ZM9.57617 18.5901L12.2845 8.46509C12.8887 6.15259 13.2428 5.54842 15.2428 5.54842C18.3053 5.54842 19.3262 6.84009 19.3262 9.48592C19.3262 14.5484 17.2637 18.5901 10.5137 18.5901H9.57617Z" fill="#C99A0C"/>
<path d="M35.3132 10.9859C32.6465 10.9859 30.4382 13.4026 27.9798 20.0484H28.4798L29.5632 15.7359C29.7923 14.8401 30.0423 13.8193 30.0423 12.9651C30.0423 11.8401 29.3757 10.9859 27.8548 10.9859C26.459 10.9859 24.4798 11.6318 23.5007 14.4859L22.6465 16.9651H23.7715L24.209 15.7151C25.1048 13.1943 25.6465 12.2359 26.6465 12.2359C27.1048 12.2359 27.1048 12.4651 27.1048 13.0068C27.1048 13.3401 27.0215 13.7776 26.8548 14.3401L22.7923 28.9443H26.2298L26.9382 26.1109C29.459 17.7151 32.2507 11.8401 34.7298 11.8401C34.8965 11.8401 34.834 11.8609 34.9798 12.0276C34.209 12.3401 33.334 13.0693 33.334 14.1526C33.334 14.9234 34.1465 15.3818 34.9382 15.3818C36.1882 15.3818 37.5632 14.2776 37.5632 12.9234C37.5632 11.7984 36.584 10.9859 35.3132 10.9859Z" fill="#C99A0C"/>
<path d="M50.0026 13.2359C50.0026 11.7359 48.6276 10.9859 47.2318 10.9859C40.7734 10.9859 35.7734 19.6943 35.7734 24.6318C35.7734 27.7776 37.7526 29.4234 40.5026 29.4234C43.3984 29.4234 46.1901 27.1318 47.4818 24.9234L46.6693 24.5484C44.8776 27.1318 43.1901 28.0068 41.5443 28.0068C40.1276 28.0068 39.4401 27.0276 39.4401 24.7151C39.4401 23.6318 39.5859 22.5068 39.8568 21.3609C43.5234 20.1109 50.0026 17.3818 50.0026 13.2359ZM46.4818 11.6318C46.8359 11.6318 46.7943 11.8609 46.7943 13.1734C46.7943 15.4026 45.8359 17.3193 44.1901 18.5901C43.1901 19.4026 41.7318 20.0901 40.0026 20.7151C41.2318 15.9026 44.2526 11.6318 46.4818 11.6318Z" fill="#C99A0C"/>
<path d="M75.9421 23.4234H75.0671L74.6087 24.6943C73.6712 27.4234 73.0879 28.1734 72.2337 28.1734C71.6712 28.1734 71.6712 27.9026 71.6712 27.3401C71.6712 27.0276 71.7546 26.5901 71.9212 26.0484L75.2337 16.1109C75.5046 15.2776 75.7129 14.3609 75.7129 13.5276C75.7129 12.1109 74.8796 10.9859 73.0879 10.9859C69.9212 10.9859 67.5254 13.6526 64.6921 20.6318H65.1712L66.4004 16.1109C66.6296 15.2568 66.8379 14.2568 66.8379 13.3818C66.8379 12.0484 66.1087 10.9859 64.3796 10.9859C61.4837 10.9859 59.0046 13.3193 56.2546 20.0276H56.7337L57.8171 15.7359C58.0671 14.8818 58.3171 13.9026 58.3171 13.0276C58.3171 11.8818 57.6296 10.9859 56.1087 10.9859C54.7129 10.9859 52.7337 11.6318 51.7546 14.4859L50.9004 16.9651H52.0254L52.4629 15.7151C53.3587 13.1943 53.9004 12.2359 54.9004 12.2359C55.4421 12.2359 55.3587 12.6318 55.3587 13.0901C55.3587 13.5484 55.1921 14.0693 55.1087 14.3401L51.0462 28.9443H54.4837L55.0254 26.7568C57.3379 18.5484 60.7337 12.0693 63.2754 12.0693C63.9629 12.0693 63.9629 12.5276 63.9629 13.1734C63.9629 13.6943 63.8171 14.3193 63.6087 14.9234L59.3587 28.9443H62.9212L63.1504 28.0901H62.6712L62.6296 28.2568H63.1296C66.0462 18.8818 69.2754 12.0693 71.9837 12.0693C72.5046 12.0693 72.4629 12.5068 72.4629 13.1318C72.4629 13.6526 72.3171 14.2984 72.1296 14.9234L68.9004 24.6526C68.5671 25.6943 68.3379 26.5901 68.3379 27.3401C68.3379 27.7776 68.4837 28.1734 68.6921 28.4859C69.0254 29.0484 69.8587 29.4234 70.9837 29.4234C72.3796 29.4234 74.3587 28.7776 75.3379 25.9234L76.1712 23.4234H75.9421Z" fill="#C99A0C"/>
<path d="M83.7044 5.69425C83.7044 6.69425 84.6628 7.44425 85.6628 7.44425C86.9961 7.44425 88.4544 6.21509 88.4544 4.88175C88.4544 3.88175 87.5378 3.09009 86.4961 3.09009C85.2044 3.09009 83.7044 4.31925 83.7044 5.69425ZM79.0586 24.6526C78.7044 25.6318 78.4544 26.5484 78.4544 27.3401C78.4544 28.5693 79.3086 29.4234 81.0794 29.4234C82.6419 29.4234 84.5586 28.5693 85.4961 25.9234L86.3919 23.4234H85.2461L84.7878 24.6943C83.7878 27.3193 83.2878 28.1734 82.3711 28.1734C81.8294 28.1734 81.8086 27.8401 81.8086 27.2984C81.8086 26.9651 81.8919 26.5484 82.0586 26.0484L85.7044 15.7359C85.9961 14.8818 86.2669 13.9234 86.2669 13.1109C86.2669 11.9234 85.4961 10.9859 83.7669 10.9859C82.3711 10.9859 80.3294 11.6318 79.3086 14.4859L78.4336 16.9651H79.5378L80.0169 15.7151C80.8919 13.3609 81.4128 12.2359 82.4753 12.2359C82.9544 12.2359 82.9544 12.5276 82.9544 13.0901C82.9544 13.4234 82.8711 13.8401 82.7044 14.3401L79.0586 24.6526Z" fill="#C99A0C"/>
<path d="M104.512 23.4234L104.053 24.6943C103.178 27.2151 102.658 28.1734 101.678 28.1734C101.137 28.1734 101.178 27.8609 101.178 27.3818C101.178 27.0276 101.262 26.5693 101.428 26.0484L105.678 10.9026C104.553 11.2776 103.428 11.4234 102.053 11.4651L101.533 13.4859C99.1576 22.2151 95.6992 28.3193 93.0742 28.3193C92.3659 28.3193 92.2409 27.9651 92.2409 27.1734C92.2409 26.7359 92.3242 26.1734 92.5742 25.4651L95.8034 15.7359C96.0951 14.7984 96.3451 13.8818 96.3451 13.0901C96.3451 11.8609 95.5326 10.9859 93.7201 10.9859C92.3242 10.9859 90.3659 11.6318 89.3867 14.4859L88.5117 16.9651H89.6367L90.0951 15.7151C91.0326 12.9859 91.6159 12.2359 92.4909 12.2359C93.0326 12.2359 93.0326 12.5068 93.0326 13.0693C93.0326 13.4026 92.9284 13.8193 92.7617 14.3401L89.4701 24.2776C89.1576 25.2151 88.9701 26.0693 88.9701 26.7984C88.9701 28.4026 90.0534 29.4234 92.0951 29.4234C94.9701 29.4234 97.5742 27.0276 100.283 20.3818H99.8034L98.7201 24.6526C98.4076 25.9026 98.2409 26.7776 98.2409 27.4443C98.2409 27.8818 98.3242 28.2151 98.4492 28.4859H98.5117C98.8242 29.1109 99.7201 29.4234 100.449 29.4234C101.845 29.4234 103.803 28.7776 104.803 25.9234L105.637 23.4234H104.512Z" fill="#C99A0C"/>
<path d="M132.811 23.4234H131.936L131.478 24.6943C130.54 27.4234 129.957 28.1734 129.103 28.1734C128.54 28.1734 128.54 27.9026 128.54 27.3401C128.54 27.0276 128.624 26.5901 128.79 26.0484L132.103 16.1109C132.374 15.2776 132.582 14.3609 132.582 13.5276C132.582 12.1109 131.749 10.9859 129.957 10.9859C126.79 10.9859 124.395 13.6526 121.561 20.6318H122.04L123.27 16.1109C123.499 15.2568 123.707 14.2568 123.707 13.3818C123.707 12.0484 122.978 10.9859 121.249 10.9859C118.353 10.9859 115.874 13.3193 113.124 20.0276H113.603L114.686 15.7359C114.936 14.8818 115.186 13.9026 115.186 13.0276C115.186 11.8818 114.499 10.9859 112.978 10.9859C111.582 10.9859 109.603 11.6318 108.624 14.4859L107.77 16.9651H108.895L109.332 15.7151C110.228 13.1943 110.77 12.2359 111.77 12.2359C112.311 12.2359 112.228 12.6318 112.228 13.0901C112.228 13.5484 112.061 14.0693 111.978 14.3401L107.915 28.9443H111.353L111.895 26.7568C114.207 18.5484 117.603 12.0693 120.145 12.0693C120.832 12.0693 120.832 12.5276 120.832 13.1734C120.832 13.6943 120.686 14.3193 120.478 14.9234L116.228 28.9443H119.79L120.02 28.0901H119.54L119.499 28.2568H119.999C122.915 18.8818 126.145 12.0693 128.853 12.0693C129.374 12.0693 129.332 12.5068 129.332 13.1318C129.332 13.6526 129.186 14.2984 128.999 14.9234L125.77 24.6526C125.436 25.6943 125.207 26.5901 125.207 27.3401C125.207 27.7776 125.353 28.1734 125.561 28.4859C125.895 29.0484 126.728 29.4234 127.853 29.4234C129.249 29.4234 131.228 28.7776 132.207 25.9234L133.04 23.4234H132.811Z" fill="#C99A0C"/>
<path d="M165.652 4.96509C164.443 4.96509 163.027 4.92342 161.506 4.86092L161.339 5.54842C163.235 5.56925 163.86 5.96509 163.86 7.00675C163.86 7.75675 163.464 8.84009 162.464 10.3818L153.027 24.8193H153.443L151.527 8.40259C151.485 8.06925 151.464 7.77759 151.464 7.50675C151.464 5.79842 152.152 5.63175 154.256 5.54842L154.423 4.84009C153.193 4.92342 151.881 4.96509 150.089 4.96509C148.798 4.96509 147.298 4.92342 146.173 4.84009L146.006 5.54842C146.902 5.56925 147.568 6.09009 147.777 7.71509L150.464 29.1109H151.381L164.798 8.48592C166.068 6.44425 167.11 5.73592 168.298 5.48592L168.485 4.84009C167.527 4.92342 166.798 4.96509 165.652 4.96509Z" fill="#C99A0C"/>
<path d="M177.108 13.2359C177.108 11.7359 175.733 10.9859 174.337 10.9859C167.879 10.9859 162.879 19.6943 162.879 24.6318C162.879 27.7776 164.858 29.4234 167.608 29.4234C170.504 29.4234 173.296 27.1318 174.587 24.9234L173.775 24.5484C171.983 27.1318 170.296 28.0068 168.65 28.0068C167.233 28.0068 166.546 27.0276 166.546 24.7151C166.546 23.6318 166.691 22.5068 166.962 21.3609C170.629 20.1109 177.108 17.3818 177.108 13.2359ZM173.587 11.6318C173.941 11.6318 173.9 11.8609 173.9 13.1734C173.9 15.4026 172.941 17.3193 171.296 18.5901C170.296 19.4026 168.837 20.0901 167.108 20.7151C168.337 15.9026 171.358 11.6318 173.587 11.6318Z" fill="#C99A0C"/>
<path d="M195.257 23.4234H194.382L193.923 24.6943C192.986 27.4234 192.402 28.1734 191.548 28.1734C190.965 28.1734 190.965 27.8401 190.965 27.3401C190.965 26.9859 191.069 26.5484 191.236 26.0484L194.548 16.1109C194.819 15.2359 195.048 14.3401 195.048 13.5484C195.048 12.0901 194.132 10.9859 192.069 10.9859C188.986 10.9859 186.236 13.4026 183.298 20.3818H183.777L184.965 15.7359C185.194 14.8193 185.423 13.8193 185.423 13.0068C185.423 11.8609 184.736 10.9859 183.173 10.9859C181.715 10.9859 179.882 11.6318 178.902 14.4859L178.027 16.9651H179.152L179.611 15.7151C180.548 13.0693 181.007 12.2359 182.007 12.2359C182.59 12.2359 182.507 12.5901 182.507 13.0693C182.507 13.4859 182.361 13.9651 182.257 14.3401L178.173 28.9443H181.632L182.215 26.5693C184.59 18.3193 188.257 12.0693 190.944 12.0693C191.777 12.0693 191.777 12.5901 191.777 13.2359C191.777 13.8193 191.59 14.4859 191.444 14.9234L188.215 24.6526C187.861 25.6734 187.632 26.5901 187.632 27.3193C187.632 27.7568 187.777 28.1318 187.965 28.4234C188.34 29.0484 189.215 29.4234 190.298 29.4234C191.694 29.4234 193.673 28.7776 194.652 25.9234L195.486 23.4234H195.257Z" fill="#C99A0C"/>
<path d="M212.708 23.4234L212.292 24.6943C211.417 27.2776 210.958 28.1734 210.062 28.1734C209.458 28.1734 209.479 27.7568 209.479 27.2151C209.479 26.8609 209.562 26.4443 209.688 26.0484L216.417 1.67343C214.208 2.7776 212.583 3.25676 209.854 3.31926L209.646 4.00676C211.604 4.00676 211.958 4.44426 211.958 5.3401C211.958 5.61093 211.917 5.9026 211.812 6.25676L210.125 12.6109H210.604C210.271 11.5484 209.146 10.9859 208.292 10.9859C202 10.9859 197.062 19.4859 197.062 24.9234C197.062 28.0068 198.708 29.4234 200.854 29.4234C203.25 29.4234 205.625 27.6109 207.833 22.9443H207.354L206.917 24.6526C206.646 25.7151 206.479 26.6109 206.479 27.2984C206.479 28.6734 207.479 29.4234 208.875 29.4234C210.229 29.4234 212.188 28.6734 213.042 25.9234L213.833 23.4234H212.708ZM201.833 28.3193C200.854 28.3193 200.562 27.3818 200.562 25.3818C200.562 19.9234 203.979 11.7776 208.333 11.7776C209.104 11.7776 209.583 12.2568 209.896 13.4859L208.625 18.2151C206.875 23.6734 203.833 28.3193 201.833 28.3193Z" fill="#C99A0C"/>
<path d="M215.721 24.0693C215.721 27.6734 217.825 29.4234 220.637 29.4234C227.012 29.4234 230.7 21.3193 230.7 16.3193C230.7 12.7151 228.637 10.9859 225.804 10.9859C219.45 10.9859 215.721 19.0693 215.721 24.0693ZM225.617 11.6734C226.887 11.6734 227.283 12.5484 227.283 14.6318C227.283 20.7151 224.512 28.7359 220.846 28.7359C219.554 28.7359 219.137 27.8193 219.137 25.7984C219.137 19.7151 221.95 11.6734 225.617 11.6734Z" fill="#C99A0C"/>
<path d="M245.229 10.9859C242.562 10.9859 240.354 13.4026 237.896 20.0484H238.396L239.479 15.7359C239.708 14.8401 239.958 13.8193 239.958 12.9651C239.958 11.8401 239.292 10.9859 237.771 10.9859C236.375 10.9859 234.396 11.6318 233.417 14.4859L232.562 16.9651H233.688L234.125 15.7151C235.021 13.1943 235.562 12.2359 236.562 12.2359C237.021 12.2359 237.021 12.4651 237.021 13.0068C237.021 13.3401 236.938 13.7776 236.771 14.3401L232.708 28.9443H236.146L236.854 26.1109C239.375 17.7151 242.167 11.8401 244.646 11.8401C244.812 11.8401 244.75 11.8609 244.896 12.0276C244.125 12.3401 243.25 13.0693 243.25 14.1526C243.25 14.9234 244.062 15.3818 244.854 15.3818C246.104 15.3818 247.479 14.2776 247.479 12.9234C247.479 11.7984 246.5 10.9859 245.229 10.9859Z" fill="#C99A0C"/>
<path d="M118.5 47.0728L102.385 33.2603L103.349 32.1353L118.391 45.0259L142.719 19.2707L130.677 1.54674H106.12L98.9115 8.03111L97.9219 6.92695L105.552 0.0623627H131.464L144.615 19.4217L118.5 47.0728Z" fill="#C99A0C"/>
</svg>
