<svg width="345" height="123" viewBox="0 0 345 123" fill="none" xmlns="http://www.w3.org/2000/svg">
<path d="M103.505 8.74963L93.9219 27.1663L88.8594 24.4163C89.2865 24.2392 89.7448 24.1038 90.2344 24.0205C90.7344 23.9371 91.1927 23.8955 91.6094 23.8955C93.1094 23.8538 94.599 24.0309 96.0885 24.4163C97.5729 24.7913 98.9219 25.4736 100.13 26.458C101.349 27.4319 102.339 28.7705 103.089 30.4788C103.839 32.1871 104.214 34.3642 104.214 36.9996C104.214 40.0726 103.495 42.7028 102.068 44.8955C100.635 47.0934 98.7656 48.7653 96.4635 49.9163C94.1719 51.0726 91.6823 51.6455 89.0052 51.6455C86.9062 51.6455 84.7031 51.208 82.401 50.333C80.1094 49.458 78.2812 48.2913 76.9219 46.833L81.651 39.1663C82.2865 39.9892 83.2656 40.7809 84.5885 41.5413C85.9062 42.3069 87.2865 42.6871 88.7344 42.6871C89.6771 42.6871 90.5938 42.458 91.4844 41.9996C92.3854 41.5309 93.1354 40.8278 93.7344 39.8955C94.3281 38.9528 94.6302 37.7913 94.6302 36.4163C94.6302 34.5413 94.099 33.0569 93.0469 31.958C92.0052 30.8486 90.5469 30.2913 88.6719 30.2913C87.3906 30.2913 86.4219 30.3486 85.7552 30.458C85.099 30.5569 84.4531 30.6871 83.8177 30.8538L83.6302 30.6038L91.1094 16.6038L93.7969 17.6871H80.4219V8.74963H103.505Z" fill="#C99A0C"/>
<path d="M146.824 36.4788L129.512 4.08298H140.949L153.095 28.4996L150.345 28.6871L162.303 4.08298H173.741L156.095 36.4788V51.1246H146.824V36.4788Z" fill="#C99A0C"/>
<path d="M180.629 4.08298H212.733V13.0205H189.9V23.0621H210.108V32.0205H189.9V42.1663H213.629V51.1246H180.629V4.08298Z" fill="#C99A0C"/>
<path d="M217.773 51.1247L238.982 2.22882H239.503L260.732 51.1247H249.982L236.44 16.7288L243.148 12.1455L226.919 51.1247H217.773ZM232.273 34.1247H246.398L249.669 41.9163H229.398L232.273 34.1247Z" fill="#C99A0C"/>
<path d="M279.132 4.08298C282.059 4.08298 284.679 4.45798 286.986 5.20798C289.288 5.94756 291.221 7.01006 292.778 8.39548C294.33 9.7861 295.512 11.4528 296.32 13.3955C297.122 15.3278 297.528 17.5101 297.528 19.9371C297.528 21.8538 297.236 23.7705 296.653 25.6871C296.08 27.6038 295.143 29.3538 293.84 30.9371C292.549 32.5101 290.83 33.7705 288.695 34.7288C286.57 35.6871 283.929 36.1663 280.778 36.1663H274.132V51.1246H264.861V4.08298H279.132ZM280.715 27.2288C282.132 27.2288 283.304 26.9944 284.236 26.5205C285.179 26.0517 285.913 25.4528 286.445 24.7288C286.971 24.0101 287.351 23.2496 287.59 22.458C287.825 21.6663 287.945 20.9319 287.945 20.2496C287.945 19.7392 287.867 19.0934 287.715 18.3121C287.575 17.5205 287.268 16.7236 286.799 15.9163C286.325 15.0986 285.611 14.4111 284.653 13.8538C283.695 13.3017 282.403 13.0205 280.778 13.0205H274.132V27.2288H280.715ZM289.424 32.9788L301.049 51.1246H290.236L278.361 33.2288L289.424 32.9788Z" fill="#C99A0C"/>
<path d="M333.699 15.458C331.907 14.4736 330.079 13.6611 328.219 13.0205C326.37 12.3851 324.641 12.0621 323.032 12.0621C321.032 12.0621 319.454 12.4736 318.303 13.2913C317.146 14.0986 316.574 15.3121 316.574 16.9371C316.574 18.0361 317.011 19.0205 317.886 19.8955C318.761 20.7705 319.886 21.5517 321.261 22.2288C322.646 22.9111 324.094 23.5309 325.594 24.083C326.954 24.5986 328.303 25.208 329.636 25.9163C330.98 26.6142 332.183 27.4892 333.24 28.5413C334.308 29.583 335.162 30.8851 335.803 32.4371C336.438 33.9944 336.761 35.8955 336.761 38.1455C336.761 40.5361 336.141 42.7601 334.907 44.8121C333.683 46.8538 331.876 48.5101 329.49 49.7705C327.1 51.0205 324.157 51.6455 320.657 51.6455C318.865 51.6455 317.042 51.4632 315.199 51.1038C313.35 50.7288 311.532 50.1767 309.74 49.4371C307.949 48.6871 306.219 47.7392 304.553 46.583L308.657 39.3538C309.751 40.1767 310.949 40.8955 312.24 41.5205C313.542 42.1351 314.855 42.6142 316.178 42.958C317.511 43.2913 318.725 43.458 319.824 43.458C320.933 43.458 322.053 43.3017 323.178 42.9788C324.313 42.6611 325.251 42.1194 325.99 41.3538C326.74 40.5778 327.115 39.5101 327.115 38.1455C327.115 37.2184 326.803 36.3694 326.178 35.6038C325.563 34.8278 324.74 34.1194 323.699 33.4788C322.657 32.8434 321.516 32.2861 320.282 31.8121C318.834 31.2705 317.344 30.6403 315.803 29.9163C314.271 29.1819 312.834 28.2913 311.49 27.2496C310.141 26.208 309.053 24.9111 308.219 23.3538C307.396 21.8017 306.99 19.8903 306.99 17.6246C306.99 14.9059 307.594 12.5413 308.803 10.5413C310.021 8.54131 311.74 6.95798 313.949 5.79131C316.167 4.61423 318.725 3.95798 321.615 3.83298C325.407 3.83298 328.48 4.2861 330.844 5.18714C333.219 6.07777 335.344 7.14027 337.219 8.37464L333.699 15.458Z" fill="#C99A0C"/>
<path d="M43.4505 85.3201C42.7005 81.2159 41.1172 78.0909 38.7214 78.0909C37.5547 78.0909 35.9297 78.8826 35.9297 81.0284C35.9297 84.4242 39.638 86.0701 41.7839 86.4659C42.0755 87.6117 42.2214 89.0076 42.2214 90.5492C42.2214 98.2159 38.6797 109.57 30.3255 109.57C27.7422 109.57 26.388 107.862 25.5547 105.508C30.3047 101.778 32.638 97.0701 32.638 92.7576C32.638 90.9242 32.0964 88.4659 30.3255 88.4659C26.9297 88.4659 21.1589 95.6951 21.1589 102.945C21.1589 104.362 21.3047 105.57 21.638 106.633C19.5339 108.508 17.4714 109.528 15.4505 109.528C13.3672 109.528 12.2422 108.112 12.2422 104.008C12.2422 94.1117 20.4297 85.1534 28.8255 78.0909L27.3672 77.3826L26.4922 78.5909C25.013 79.8617 23.6797 80.5076 21.7214 80.5076C19.3255 80.5076 18.388 78.0909 16.0547 78.0909C13.9297 78.0909 11.7422 79.5076 10.1589 84.3617L8.74219 88.8409H10.3047L11.013 86.5492C11.9505 83.6742 12.5755 82.7576 13.8672 82.7576C15.2839 82.7576 16.2005 84.2992 17.7422 84.2992C19.388 84.2992 21.7214 82.6534 23.8464 81.4242H23.5755C15.4297 87.5701 5.86719 96.7159 5.86719 104.362C5.86719 107.987 8.01302 111.383 13.6797 111.383C16.8255 111.383 19.8672 109.841 22.0547 107.799C23.2005 110.424 25.888 111.383 28.638 111.383C39.388 111.383 43.9714 99.6951 43.9714 90.4451C43.9714 88.5909 43.7839 86.8617 43.4505 85.3201ZM29.8672 89.8201C30.8047 89.8201 30.8255 91.0492 30.8255 92.6951C30.8255 96.9034 28.5339 101.424 25.2005 104.216C24.9505 103.195 24.8464 101.841 24.8464 100.487C24.8464 95.1534 27.8672 89.8201 29.8672 89.8201Z" fill="#C99A0C"/>
<path d="M58.4915 68.5701C58.4915 70.3409 59.9707 71.7159 61.804 71.7159C64.1999 71.7159 66.5957 69.4868 66.5957 67.0701C66.5957 65.2784 65.179 63.8618 63.304 63.8618C60.9499 63.8618 58.4915 66.0701 58.4915 68.5701ZM50.1165 102.778C49.4707 104.508 49.0332 106.195 49.0332 107.633C49.0332 109.82 50.3249 111.383 53.5332 111.383C56.3457 111.383 59.554 109.82 61.2624 105.049L62.8457 100.549H61.2832L60.4499 102.841C58.6582 107.57 57.5124 109.091 55.8665 109.091C54.8665 109.091 54.5749 108.528 54.5749 107.549C54.5749 106.945 54.7207 106.195 55.054 105.299L61.6165 86.6743C62.1582 85.1118 62.6374 83.4034 62.6374 81.9451C62.6374 79.7784 61.4707 78.0909 58.3874 78.0909C55.8665 78.0909 52.3874 79.2784 50.554 84.4243L48.9707 88.9034H50.4915L51.3665 86.6118C52.9499 82.3826 54.1165 80.3409 56.0332 80.3409C56.9082 80.3409 57.1582 80.8826 57.1582 81.9034C57.1582 82.5076 57.0124 83.2576 56.6999 84.1534L50.1165 102.778Z" fill="#C99A0C"/>
<path d="M80.181 80.1742H88.6393L88.8268 78.9451H80.7018L83.5977 68.6951C81.8268 69.3201 79.8685 69.5492 77.7018 69.6534L75.0352 78.9451H69.4518L69.1602 80.1742H74.681L68.1602 102.778C67.806 104.07 67.5977 105.237 67.5977 106.278C67.5977 109.403 69.5143 111.383 73.2852 111.383C77.0352 111.383 80.0977 109.758 81.8893 104.424L83.181 100.549H81.6185L80.7643 102.945C78.931 108.049 77.2852 109.091 75.5143 109.091C74.0143 109.091 73.0143 108.383 73.0143 106.674C73.0143 106.278 73.0768 105.799 73.2227 105.299L80.3685 80.1742H80.181Z" fill="#C99A0C"/>
<path d="M115.96 100.549H114.585L113.794 102.841C112.064 107.758 110.794 109.091 109.273 109.091C108.189 109.091 108.002 108.528 108.002 107.633C108.002 107.008 108.189 106.195 108.46 105.299L114.419 87.3617C114.939 85.7992 115.335 84.1951 115.335 82.7576C115.335 80.1117 113.919 78.0909 110.189 78.0909C105.064 78.0909 100.689 81.9034 96.1061 92.1326H96.502L105.439 61.5284C102.023 63.2992 98.6478 64.1534 93.9603 64.2576L93.5853 65.5076C96.8561 65.5076 97.8145 66.2576 97.8145 67.8826C97.8145 68.3617 97.6895 68.9242 97.5228 69.5492L85.377 110.508H91.1061L93.3561 102.799C97.9186 89.1951 103.627 80.0492 108.169 80.0492C109.689 80.0492 109.96 81.0076 109.96 82.1534C109.96 83.1742 109.606 84.3617 109.294 85.2159L103.481 102.778C102.856 104.612 102.46 106.258 102.46 107.591C102.46 109.945 103.835 111.383 107.002 111.383C109.502 111.383 112.835 110.216 114.606 105.049L116.127 100.549H115.96Z" fill="#C99A0C"/>
<path d="M145.452 68.5701C145.452 70.3409 146.91 71.7159 148.743 71.7159C150.91 71.7159 153.035 69.9243 153.473 67.7784C153.514 67.5493 153.535 67.2993 153.535 67.0701C153.535 65.2784 152.139 63.8618 150.223 63.8618C147.91 63.8618 145.452 66.0701 145.452 68.5701ZM129.285 121.112C130.223 120.216 131.056 118.987 131.056 117.82C131.056 116.716 130.16 115.903 128.868 115.903C126.889 115.903 125.035 117.883 125.035 119.653C125.035 121.112 126.223 122.049 128.118 122.049C128.993 122.049 130.514 121.862 131.743 121.445C137.264 119.403 141.306 112.674 143.889 103.424L148.618 86.6743C149.098 84.9659 149.535 83.2784 149.535 81.8409C149.535 79.6534 148.389 78.0909 145.264 78.0909C142.243 78.0909 139.16 79.4451 137.514 84.4243L136.014 88.9034H137.556L138.368 86.6118C140.014 81.9659 141.243 80.3409 142.868 80.3409C143.806 80.3409 144.014 80.7784 144.014 81.7576C144.014 82.3201 143.868 83.1326 143.556 84.1534L135.056 114.487C133.764 119.112 132.223 120.758 129.285 121.112Z" fill="#C99A0C"/>
<path d="M181.588 100.549L180.775 102.841C179.171 107.383 177.984 109.091 176.213 109.091C175.255 109.091 175.067 108.549 175.067 107.695C175.067 107.07 175.255 106.216 175.525 105.299L183.13 78.0493C181.421 78.6326 179.4 78.8826 177.15 78.9659L176.213 82.5909C171.921 98.3618 165.442 109.403 160.713 109.403C159.421 109.403 158.942 108.737 158.942 107.299C158.942 106.528 159.13 105.508 159.546 104.237L165.4 86.6743C165.921 84.9868 166.38 83.3201 166.38 81.9034C166.38 79.6951 165.15 78.0909 161.88 78.0909C159.359 78.0909 156.046 79.2784 154.275 84.4243L152.713 88.9034H154.275L155.088 86.6118C156.796 81.6951 158.067 80.3409 159.63 80.3409C160.63 80.3409 160.859 80.8618 160.859 81.8409C160.859 82.4451 160.692 83.2368 160.38 84.1534L154.442 102.091C153.88 103.758 153.546 105.32 153.546 106.633C153.546 109.528 155.255 111.383 158.942 111.383C164.13 111.383 168.567 107.028 173.484 95.0701H173.088L171.15 102.778C170.567 105.028 170.275 106.612 170.275 107.799C170.275 108.591 170.4 109.195 170.63 109.695H170.692C171.275 110.799 172.713 111.383 173.984 111.383C176.505 111.383 179.817 110.216 181.609 105.049L183.13 100.549H181.588Z" fill="#C99A0C"/>
<path d="M218.361 100.549H217.027L216.215 102.841C214.507 107.758 213.215 109.091 211.673 109.091C210.632 109.091 210.402 108.528 210.402 107.591C210.402 106.966 210.569 106.195 210.882 105.299L216.84 87.3617C217.34 85.7784 217.736 84.1534 217.736 82.7159C217.736 80.0701 216.319 78.0909 212.611 78.0909C207.027 78.0909 202.319 82.4867 197.027 95.0701H197.402L199.548 86.6742C199.965 85.0284 200.382 83.2367 200.382 81.7367C200.382 79.6534 199.382 78.0909 196.569 78.0909C193.944 78.0909 190.84 79.2784 189.069 84.4242L187.527 88.9034H189.069L189.882 86.6117C191.59 81.8409 192.652 80.3409 194.444 80.3409C195.486 80.3409 195.59 81.0076 195.59 81.8409C195.59 82.5909 195.34 83.4659 195.132 84.1534L187.798 110.508H193.507L194.59 106.216C198.882 91.3617 205.736 80.0492 210.569 80.0492C212.111 80.0492 212.34 81.0076 212.34 82.1742C212.34 83.2367 211.986 84.4242 211.715 85.2159L205.902 102.778C205.257 104.612 204.84 106.258 204.84 107.57C204.84 108.341 205.048 109.028 205.382 109.57C206.069 110.695 207.444 111.383 209.402 111.383C211.923 111.383 215.257 110.216 217.027 105.049L218.548 100.549H218.361Z" fill="#C99A0C"/>
<path d="M247.059 82.1534C247.059 79.4451 244.829 78.0909 242.309 78.0909C230.663 78.0909 221.871 93.7992 221.871 102.716C221.871 108.403 225.204 111.383 230.163 111.383C235.392 111.383 240.246 107.237 242.621 103.195L241.413 102.633C238.246 107.237 235.038 108.799 232.059 108.799C229.475 108.799 228.017 107.07 228.017 102.903C228.017 100.924 228.246 98.9034 228.704 96.9034C235.6 94.5492 247.059 89.6326 247.059 82.1534ZM240.975 79.2784C241.6 79.2784 241.746 79.6951 241.746 82.0284C241.746 86.0701 239.975 89.5284 237.017 91.8409C235.204 93.2784 232.392 94.5284 228.975 95.7367C231.246 86.9659 236.954 79.2784 240.975 79.2784Z" fill="#C99A0C"/>
<path d="M269.757 78.0909C265.632 78.0909 261.757 81.7576 257.861 90.6951H258.257L266.215 61.5284C262.799 63.2992 259.715 64.1534 255.007 64.2576L254.715 65.5076C258.007 65.5076 258.82 66.2992 258.82 67.9034C258.82 68.3826 258.736 68.9242 258.59 69.5492L247.82 107.508C247.57 108.737 247.278 109.966 246.736 111.008L247.84 111.549C249.653 110.091 251.382 108.674 252.861 107.487C253.507 109.903 255.757 111.383 258.153 111.383C269.653 111.383 276.32 96.0284 276.32 86.7367C276.32 80.9242 273.632 78.0909 269.757 78.0909ZM258.111 109.966C256.215 109.966 254.945 109.091 253.903 106.549L256.028 98.8409C259.653 88.4659 264.611 80.0492 267.986 80.0492C269.757 80.0492 270.653 81.7784 270.653 85.3826C270.653 94.6117 265.049 109.966 258.111 109.966Z" fill="#C99A0C"/>
<path d="M308.809 100.549L307.996 102.841C306.392 107.383 305.204 109.091 303.434 109.091C302.475 109.091 302.288 108.549 302.288 107.695C302.288 107.07 302.475 106.216 302.746 105.299L310.35 78.0493C308.642 78.6326 306.621 78.8826 304.371 78.9659L303.434 82.5909C299.142 98.3618 292.663 109.403 287.934 109.403C286.642 109.403 286.163 108.737 286.163 107.299C286.163 106.528 286.35 105.508 286.767 104.237L292.621 86.6743C293.142 84.9868 293.6 83.3201 293.6 81.9034C293.6 79.6951 292.371 78.0909 289.1 78.0909C286.579 78.0909 283.267 79.2784 281.496 84.4243L279.934 88.9034H281.496L282.309 86.6118C284.017 81.6951 285.288 80.3409 286.85 80.3409C287.85 80.3409 288.079 80.8618 288.079 81.8409C288.079 82.4451 287.913 83.2368 287.6 84.1534L281.663 102.091C281.1 103.758 280.767 105.32 280.767 106.633C280.767 109.528 282.475 111.383 286.163 111.383C291.35 111.383 295.788 107.028 300.704 95.0701H300.309L298.371 102.778C297.788 105.028 297.496 106.612 297.496 107.799C297.496 108.591 297.621 109.195 297.85 109.695H297.913C298.496 110.799 299.934 111.383 301.204 111.383C303.725 111.383 307.038 110.216 308.829 105.049L310.35 100.549H308.809Z" fill="#C99A0C"/>
<path d="M341.354 72.4451C339.896 72.4451 338.396 73.0076 337.229 73.7784C335.812 74.7992 334.458 76.4242 333.271 78.4034C332.458 78.1951 331.375 78.0909 330.25 78.0909C319.979 78.0909 316.188 86.2576 316.188 90.7576C316.188 95.2159 319.75 97.3201 324.729 97.4451C316.688 101.341 315.062 103.466 315.062 105.883C315.062 107.383 316.188 108.466 317.625 109.091C309.438 112.299 306.938 115.341 306.938 118.008C306.938 120.57 310.062 122.466 316.458 122.466C328.833 122.466 334.854 115.549 334.854 111.112C334.854 108.112 331.917 106.945 327.729 105.841L323.25 104.653C320.854 104.07 319.75 103.424 319.75 102.591C319.75 100.966 323.354 99.3826 327 97.3409C334.188 96.5284 339.208 90.5076 339.208 84.9659C339.208 81.5701 337.312 79.5701 334.521 78.7367C335.604 76.8409 336.896 75.3201 337.917 74.6534C338.312 74.4034 338.854 74.0492 339.292 74.0492C339.438 74.0492 339.417 74.0909 339.5 74.1742C339 74.7784 338.625 75.6326 338.625 76.3617C338.625 77.4659 339.542 78.1534 340.583 78.1534C342.417 78.1534 344.188 76.3617 344.188 74.5909C344.188 73.0701 342.958 72.4451 341.354 72.4451ZM325.417 96.3201C323.125 96.3201 321.896 95.2784 321.896 92.3409C321.896 90.3617 323.021 79.2159 329.938 79.2159C332.75 79.2159 333.354 80.9867 333.354 83.1951C333.354 87.9034 332.271 96.3201 325.417 96.3201ZM326.812 111.487C329.271 112.153 330.292 112.341 330.292 113.445C330.292 118.008 323.729 121.445 318.167 121.445C314.833 121.445 312.5 119.945 312.5 116.945C312.5 115.174 313.146 112.362 318.646 109.424L326.812 111.487Z" fill="#C99A0C"/>
<path d="M43.5938 23.9424C39.5677 19.9112 36.8073 12.8643 35.4375 6.46326C34.0677 12.8643 31.3125 19.9112 27.276 23.9424C23.2448 27.9685 16.2031 30.7341 9.79688 32.1039C16.2031 33.4737 23.2448 36.2289 27.276 40.2601C31.3125 44.2914 34.0677 51.3383 35.4427 57.7445C36.8073 51.333 39.5677 44.2914 43.599 40.2601C47.6302 36.2289 54.6719 33.4685 61.0781 32.0987C54.6719 30.7289 47.6302 27.9685 43.5938 23.9424ZM10.651 8.28617C10.2292 7.8643 9.94271 7.12992 9.79688 6.46326C9.65625 7.12992 9.36979 7.8643 8.94792 8.28617C8.52604 8.70284 7.79167 8.9893 7.125 9.13513C7.79167 9.27576 8.52604 9.56742 8.94792 9.98409C9.36979 10.406 9.65625 11.1403 9.79688 11.807C9.94271 11.1403 10.2292 10.406 10.651 9.98409C11.0677 9.56742 11.8021 9.27576 12.474 9.13513C11.8021 8.9893 11.0677 8.70284 10.651 8.28617ZM15.9531 56.1612C15.9115 56.1195 15.8802 56.0466 15.8646 55.9737C15.849 56.0466 15.8229 56.1195 15.776 56.1612C15.7344 56.208 15.6562 56.2393 15.5885 56.2497C15.6562 56.2653 15.7344 56.2966 15.776 56.3383C15.8229 56.3799 15.849 56.4581 15.8646 56.5258C15.8802 56.4581 15.9115 56.3799 15.9531 56.3383C15.9948 56.2966 16.0729 56.2653 16.1406 56.2497C16.0729 56.2393 15.9948 56.208 15.9531 56.1612Z" stroke="#C99A0C" stroke-width="2.66667" stroke-miterlimit="10"/>
</svg>
