<?xml version="1.0" encoding="UTF-8"?>
<svg id="Layer_1" data-name="Layer 1" xmlns="http://www.w3.org/2000/svg" viewBox="0 0 2075 84">
  <defs>
    <style>
      .cls-1 {
        fill: #c99a0c;
        stroke-width: 0px;
      }
    </style>
  </defs>
  <g>
    <path class="cls-1" d="m1025.06,63.17l-21.22-21.22,21.19-21.18.48.49-20.7,20.7,20.24,20.25,19.94-19.93-12.36-12.98.5-.47,12.82,13.46-20.9,20.9Z"/>
    <path class="cls-1" d="m1025.06,63.35l-.09-.09-21.3-21.31.09-.09,21.27-21.27.66.66-.09.09-20.61,20.61,20.07,20.07,19.76-19.76-12.36-12.98.68-.64.09.09,12.9,13.55-.09.09-20.98,20.98Zm-21.04-21.4l21.04,21.04,20.72-20.72-12.65-13.28-.32.3,12.36,12.98-20.11,20.11-.09-.09-20.33-20.33.09-.09,20.61-20.61-.31-.31-21.01,21.01Z"/>
  </g>
  <g>
    <polygon class="cls-1" points="1049.44 62.9 1028.54 42 1049.76 20.78 1070.95 41.97 1070.46 42.46 1049.76 21.76 1029.52 42 1049.45 61.94 1062.43 49.58 1062.9 50.08 1049.44 62.9"/>
    <path class="cls-1" d="m1049.44,63.07l-.09-.09-20.98-20.98.09-.09,21.31-21.31.09.09,21.28,21.28-.67.66-.09-.09-20.61-20.61-20.07,20.07,19.76,19.76,12.98-12.36.65.68-.09.09-13.55,12.9Zm-20.72-21.07l20.72,20.72,13.29-12.65-.3-.32-12.97,12.35-.09-.09-20.03-20.02.09-.09,20.33-20.33.09.09,20.61,20.61.31-.31-21.01-21.01-21.04,21.04Z"/>
  </g>
  <rect class="cls-1" y="41.27" width="1004.76" height="1"/>
  <path class="cls-1" d="m2075,42.64h-1004.54v-1h1004.54v1Z"/>
</svg>