<svg width="179" height="54" viewBox="0 0 179 54" fill="none" xmlns="http://www.w3.org/2000/svg">
<path d="M0.691406 17.9769V1.81024H5.52474C7.14974 1.81024 8.52995 2.05503 9.67057 2.53941C10.806 3.02899 11.7227 3.67483 12.4206 4.47691C13.1289 5.2842 13.6393 6.18524 13.9622 7.18524C14.2799 8.17483 14.4414 9.17483 14.4414 10.1852C14.4414 11.3832 14.2227 12.4561 13.7956 13.4144C13.3633 14.3727 12.7747 15.1957 12.0247 15.8727C11.2747 16.555 10.4049 17.0759 9.42057 17.4352C8.44661 17.7998 7.41016 17.9769 6.31641 17.9769H0.691406ZM3.87891 14.8936H5.77474C6.57682 14.8936 7.30599 14.7894 7.96224 14.5811C8.61328 14.3727 9.17578 14.0707 9.64974 13.6644C10.1341 13.2477 10.5039 12.7269 10.7539 12.1019C11.0143 11.4769 11.1497 10.7634 11.1497 9.95608C11.1497 8.90399 10.9727 8.03941 10.6289 7.37274C10.2799 6.70608 9.85807 6.19566 9.35807 5.83108C8.85807 5.4717 8.34245 5.2217 7.81641 5.08108C7.28516 4.94566 6.83724 4.87274 6.46224 4.87274H3.87891V14.8936Z" fill="#C99A0C"/>
<path d="M17.5723 1.81024H28.5931V4.89358H20.7598V8.33108H27.6973V11.4144H20.7598V14.8936H28.9056V17.9769H17.5723V1.81024Z" fill="#C99A0C"/>
<path d="M40.7734 5.72693C40.1589 5.3936 39.5339 5.11755 38.8984 4.8936C38.2578 4.67485 37.6589 4.56026 37.1068 4.56026C36.4245 4.56026 35.8828 4.70089 35.4818 4.97693C35.0911 5.25818 34.8984 5.67485 34.8984 6.22693C34.8984 6.61755 35.0443 6.96651 35.3359 7.2686C35.638 7.56026 36.0286 7.82589 36.5026 8.06026C36.987 8.28422 37.4818 8.49255 37.9818 8.68526C38.4505 8.86755 38.9193 9.0811 39.3776 9.3311C39.8464 9.57068 40.263 9.86755 40.6276 10.2269C40.987 10.5759 41.2786 11.0186 41.5026 11.5603C41.7214 12.0915 41.8359 12.7426 41.8359 13.5186C41.8359 14.3415 41.6172 15.1019 41.1901 15.8103C40.7734 16.5082 40.1536 17.0707 39.3359 17.4978C38.513 17.9301 37.5026 18.1436 36.2943 18.1436C35.6797 18.1436 35.0547 18.0863 34.4193 17.9769C33.7786 17.8519 33.1536 17.6644 32.5443 17.4144C31.9297 17.154 31.3411 16.8207 30.7734 16.4144L32.1693 13.9353C32.5547 14.2165 32.9714 14.4665 33.4193 14.6853C33.862 14.8936 34.3047 15.0603 34.7526 15.1853C35.2109 15.2998 35.6328 15.3519 36.0234 15.3519C36.3984 15.3519 36.7786 15.2998 37.1693 15.1853C37.5547 15.0759 37.8776 14.8884 38.1276 14.6228C38.388 14.3623 38.5234 13.9926 38.5234 13.5186C38.5234 13.2009 38.4089 12.9092 38.1901 12.6436C37.9818 12.3832 37.6953 12.1384 37.3359 11.9144C36.987 11.6957 36.5964 11.5082 36.1693 11.3519C35.6693 11.1592 35.1536 10.9353 34.6276 10.6853C34.0964 10.4353 33.6068 10.1384 33.1484 9.78943C32.6901 9.43006 32.3151 8.98735 32.0234 8.4561C31.7422 7.91443 31.6068 7.25818 31.6068 6.47693C31.6068 5.53422 31.8151 4.72172 32.2318 4.03943C32.6484 3.34672 33.2318 2.79985 33.9818 2.3936C34.7422 1.99255 35.6276 1.7686 36.6276 1.72693C37.9297 1.72693 38.987 1.88318 39.7943 2.18526C40.612 2.49255 41.3411 2.86234 41.9818 3.28943L40.7734 5.72693Z" fill="#C99A0C"/>
<path d="M43.7988 1.81024H54.6947V4.89358H50.778V17.9769H47.5905V4.89358H43.7988V1.81024Z" fill="#C99A0C"/>
<path d="M57.7227 1.81024H60.9102V17.9769H57.7227V1.81024Z" fill="#C99A0C"/>
<path d="M79.5124 18.6436L67.2624 7.56024L68.1999 8.10191L68.2624 17.9769H65.0332V1.18524H65.1582L77.1582 12.2061L76.4499 11.8936L76.3874 1.81024H79.5957V18.6436H79.5124Z" fill="#C99A0C"/>
<path d="M81.9004 17.9769L89.1921 1.18524H89.3587L96.6504 17.9769H92.9629L88.2962 6.16441L90.6087 4.58108L85.0254 17.9769H81.9004ZM86.8796 12.1436H91.7337L92.8587 14.8102H85.8796L86.8796 12.1436Z" fill="#C99A0C"/>
<path d="M96.5273 1.81024H107.423V4.89358H103.507V17.9769H100.319V4.89358H96.5273V1.81024Z" fill="#C99A0C"/>
<path d="M110.451 1.81024H113.639V17.9769H110.451V1.81024Z" fill="#C99A0C"/>
<path d="M116.781 9.91445C116.781 8.80507 116.99 7.7582 117.406 6.76862C117.833 5.76862 118.427 4.88841 119.177 4.12278C119.927 3.34674 120.802 2.74257 121.802 2.31028C122.802 1.86757 123.87 1.64362 125.01 1.64362C126.135 1.64362 127.188 1.86757 128.177 2.31028C129.177 2.74257 130.057 3.34674 130.823 4.12278C131.599 4.88841 132.203 5.76862 132.635 6.76862C133.062 7.7582 133.281 8.80507 133.281 9.91445C133.281 11.0551 133.062 12.1228 132.635 13.1228C132.203 14.1228 131.599 14.9978 130.823 15.7478C130.057 16.4978 129.177 17.0915 128.177 17.5186C127.188 17.9353 126.135 18.1436 125.01 18.1436C123.87 18.1436 122.802 17.9353 121.802 17.5186C120.802 17.0915 119.927 16.4978 119.177 15.7478C118.427 14.9978 117.833 14.1228 117.406 13.1228C116.99 12.1228 116.781 11.0551 116.781 9.91445ZM120.073 9.91445C120.073 10.6384 120.198 11.3103 120.448 11.9353C120.708 12.5499 121.073 13.0967 121.531 13.5811C121.99 14.0551 122.521 14.4249 123.135 14.6853C123.745 14.9509 124.406 15.0811 125.115 15.0811C125.807 15.0811 126.448 14.9509 127.031 14.6853C127.625 14.4249 128.141 14.0551 128.573 13.5811C129.016 13.0967 129.365 12.5499 129.615 11.9353C129.865 11.3103 129.99 10.6384 129.99 9.91445C129.99 9.18007 129.854 8.49778 129.594 7.87278C129.344 7.24778 128.995 6.70091 128.552 6.22695C128.104 5.74257 127.583 5.36757 126.99 5.10195C126.391 4.84153 125.74 4.70612 125.031 4.70612C124.323 4.70612 123.667 4.84153 123.073 5.10195C122.474 5.36757 121.948 5.74257 121.49 6.22695C121.042 6.70091 120.698 7.24778 120.448 7.87278C120.198 8.49778 120.073 9.18007 120.073 9.91445Z" fill="#C99A0C"/>
<path d="M150.899 18.6436L138.649 7.56024L139.587 8.10191L139.649 17.9769H136.42V1.18524H136.545L148.545 12.2061L147.837 11.8936L147.774 1.81024H150.982V18.6436H150.899Z" fill="#C99A0C"/>
<path d="M26.196 25.5928C25.1126 25.5928 23.8001 25.5511 22.3835 25.4886L22.2168 26.1136C24.071 26.1553 24.6335 26.4469 24.6335 27.5094C24.6335 28.1761 24.3626 29.1344 23.6751 30.5303H23.5918L17.5085 42.8844H18.0501L15.821 28.7386C15.7585 28.3428 15.7376 28.0094 15.7376 27.7386C15.7376 26.4678 16.1543 26.1969 18.1751 26.1136L18.3001 25.4886C17.1751 25.5511 15.696 25.5928 14.071 25.5928C13.0085 25.5928 12.0501 25.5511 11.0293 25.4886L10.9043 26.1136C11.7376 26.1553 12.0501 26.5303 12.3001 28.1136L13.0085 32.6761L6.55013 43.5719H7.00846L5.25846 28.7386C5.23763 28.4261 5.2168 28.1553 5.2168 27.9261C5.2168 26.5303 5.55013 26.1969 7.00846 26.0928L7.13346 25.4886C6.13346 25.5511 4.88346 25.5928 3.50846 25.5928C2.32096 25.5928 1.2793 25.5511 0.154297 25.4886L0.0292969 26.1136C0.966797 26.1553 1.5293 26.4886 1.75846 28.1136L4.2168 47.6761H5.1543L13.6126 33.5094H13.1543L15.3835 47.6761H16.4251L25.7168 28.8219C26.6751 26.8219 27.5501 26.3011 28.6751 26.0719L28.8418 25.4886C27.9251 25.5511 27.2793 25.5928 26.196 25.5928Z" fill="#C99A0C"/>
<path d="M37.2975 33.1553C37.2975 31.7803 36.0059 31.0928 34.735 31.0928C28.8184 31.0928 24.1934 39.0719 24.1934 43.5719C24.1934 46.4678 26.0475 47.9678 28.5684 47.9678C31.2142 47.9678 33.7975 45.8636 34.9642 43.8636L34.1725 43.4886C32.5475 45.8636 31.0267 46.6553 29.5267 46.6553C28.2142 46.6553 27.6517 45.7803 27.6517 43.6761C27.6517 42.6761 27.7767 41.6553 28.0059 40.5719C31.3184 39.4469 37.2975 36.9469 37.2975 33.1553ZM34.0475 31.6969C34.36 31.6969 34.2767 31.9053 34.2767 33.0928C34.2767 35.1344 33.4225 36.8844 31.9225 38.0719C31.0059 38.8011 29.6934 39.4261 28.1725 39.9678C29.2767 35.5928 32.0059 31.6969 34.0475 31.6969Z" fill="#C99A0C"/>
<path d="M51.7969 42.4886L51.4219 43.6344C50.6094 46.0094 50.2344 46.8219 49.4219 46.8219C48.8594 46.8219 48.9427 46.4469 48.9427 45.9469C48.9427 45.6344 49.026 45.2594 49.1302 44.8844L55.2969 22.5303C53.1927 23.5928 51.7344 24.0303 49.1927 24.0719L48.9844 24.7178C50.8385 24.7178 51.1094 25.1136 51.1094 25.9261C51.1094 26.1761 51.0677 26.4469 50.9844 26.7803L49.4219 32.5928H49.9635C49.651 31.6136 48.5885 31.0928 47.7969 31.0928C42.0469 31.0928 37.4844 38.8844 37.4844 43.8428C37.4844 46.6553 39.0469 47.9678 41.0052 47.9678C43.1927 47.9678 45.4219 46.3219 47.4427 42.0511H46.901L46.5052 43.6136C46.2552 44.5719 46.1094 45.3844 46.1094 46.0303C46.1094 47.2803 47.0677 47.9678 48.3385 47.9678C49.5885 47.9678 51.4219 47.2803 52.1927 44.7594L52.9219 42.4886H51.7969ZM41.901 46.9678C41.0052 46.9678 40.776 46.0928 40.776 44.2594C40.776 39.2803 43.8594 31.8219 47.8385 31.8219C48.5469 31.8219 48.9427 32.2803 49.2135 33.4053L48.0677 37.7178C46.4635 42.7178 43.7135 46.9678 41.901 46.9678Z" fill="#C99A0C"/>
<path d="M68.6035 42.4886L68.2285 43.6344C67.416 46.0094 67.041 46.8219 66.2285 46.8219C65.666 46.8219 65.7493 46.4469 65.7493 45.9469C65.7493 45.6344 65.8327 45.2594 65.9368 44.8844L72.1035 22.5303C69.9993 23.5928 68.541 24.0303 65.9993 24.0719L65.791 24.7178C67.6452 24.7178 67.916 25.1136 67.916 25.9261C67.916 26.1761 67.8743 26.4469 67.791 26.7803L66.2285 32.5928H66.7702C66.4577 31.6136 65.3952 31.0928 64.6035 31.0928C58.8535 31.0928 54.291 38.8844 54.291 43.8428C54.291 46.6553 55.8535 47.9678 57.8118 47.9678C59.9993 47.9678 62.2285 46.3219 64.2493 42.0511H63.7077L63.3118 43.6136C63.0618 44.5719 62.916 45.3844 62.916 46.0303C62.916 47.2803 63.8743 47.9678 65.1452 47.9678C66.3952 47.9678 68.2285 47.2803 68.9993 44.7594L69.7285 42.4886H68.6035ZM58.7077 46.9678C57.8118 46.9678 57.5827 46.0928 57.5827 44.2594C57.5827 39.2803 60.666 31.8219 64.6452 31.8219C65.3535 31.8219 65.7493 32.2803 66.0202 33.4053L64.8743 37.7178C63.2702 42.7178 60.5202 46.9678 58.7077 46.9678Z" fill="#C99A0C"/>
<path d="M76.556 26.2595C76.556 27.1553 77.4727 27.8636 78.3893 27.8636C79.6185 27.8636 80.9935 26.7386 80.9935 25.5095C80.9935 24.5928 80.1185 23.8845 79.1602 23.8845C77.9727 23.8845 76.556 25.0095 76.556 26.2595ZM72.306 43.6136C71.9727 44.4886 71.7435 45.3428 71.7435 46.072C71.7435 47.1761 72.5768 47.9678 74.2018 47.9678C75.6185 47.9678 77.431 47.1761 78.2852 44.7595L79.0977 42.4886H77.9727L77.5352 43.6345C76.6393 46.0511 76.2227 46.822 75.3893 46.822C74.8893 46.822 74.8893 46.5303 74.8893 46.0303C74.8893 45.7178 74.9727 45.3428 75.1393 44.8845L78.4727 35.447C78.7435 34.6553 78.9935 33.8011 78.9935 33.0511C78.9935 31.947 78.2227 31.0928 76.6602 31.0928C75.3893 31.0928 73.4518 31.697 72.5352 34.3011L71.7227 36.572H72.8268L73.2643 35.4261C74.0768 33.2803 74.5143 32.2386 75.4727 32.2386C75.9102 32.2386 75.8685 32.5095 75.8685 33.0303C75.8685 33.3428 75.806 33.7178 75.6393 34.1761L72.306 43.6136Z" fill="#C99A0C"/>
<path d="M96.8112 42.4886H95.9779L95.5612 43.6344C94.6862 46.1344 94.207 46.8219 93.4362 46.8219C92.8945 46.8219 92.9362 46.5303 92.9362 46.0511C92.9362 45.7386 93.0404 45.3428 93.1862 44.8844L96.207 35.8011C96.4779 34.9886 96.6654 34.1761 96.6654 33.4469C96.6654 32.1136 95.7904 31.0928 93.8945 31.0928C91.082 31.0928 88.5195 33.3219 85.832 39.6969H86.3737L87.4362 35.4469C87.6654 34.6136 87.8737 33.6969 87.8737 32.9469C87.8737 31.8844 87.207 31.0928 85.7695 31.0928C84.4362 31.0928 82.707 31.6969 81.8112 34.3011L81.0195 36.5719H82.1445L82.5612 35.4261C83.4154 33.0094 83.7904 32.2386 84.6862 32.2386C85.2279 32.2386 85.1029 32.5719 85.1029 33.0094C85.1029 33.3844 84.9779 33.8219 84.8737 34.1761L81.1445 47.5303H84.3945L84.9362 45.3636C87.1029 37.8219 90.4154 32.0928 92.8737 32.0928C93.6445 32.0928 93.6029 32.5719 93.6029 33.1761C93.6029 33.6969 93.4154 34.3011 93.2904 34.6969L90.332 43.6136C90.0195 44.5303 89.7904 45.3636 89.7904 46.0511C89.7904 46.4261 89.957 46.7803 90.1237 47.0511C90.4779 47.6136 91.2904 47.9678 92.2695 47.9678C93.5612 47.9678 95.4154 47.3844 96.3112 44.7594L97.082 42.4886H96.8112Z" fill="#C99A0C"/>
<path d="M112.676 28.2386C111.926 28.2386 111.051 28.5094 110.447 28.9053C109.738 29.4261 109.051 30.2594 108.467 31.2178C108.155 31.1553 107.613 31.0928 107.03 31.0928C101.842 31.0928 99.7383 35.2386 99.7383 37.5094C99.7383 39.7803 101.717 40.8428 104.238 40.9053C100.155 42.8844 99.1758 43.9678 99.1758 45.1969C99.1758 45.9469 99.9049 46.4886 100.634 46.8219C96.4883 48.4469 95.0508 49.9678 95.0508 51.3219C95.0508 52.6344 96.8008 53.5928 100.03 53.5928C106.322 53.5928 109.53 50.0928 109.53 47.8428C109.53 46.3219 107.884 45.7178 105.759 45.1553L103.488 44.5719C102.28 44.2594 101.884 43.9469 101.884 43.5094C101.884 42.6969 103.655 41.8844 105.551 40.8428C109.03 40.4469 111.738 37.3844 111.738 34.5719C111.738 32.8636 110.613 31.8428 109.301 31.4469C109.863 30.4678 110.53 29.6969 111.051 29.3636C111.238 29.2386 111.384 29.0511 111.613 29.0511C111.697 29.0511 111.551 29.0719 111.613 29.1136C111.342 29.4053 111.113 29.8636 111.113 30.2178C111.113 30.7803 111.738 31.1344 112.28 31.1344C113.197 31.1344 114.259 30.2178 114.259 29.3219C114.259 28.5511 113.467 28.2386 112.676 28.2386ZM104.592 40.3428C103.426 40.3428 102.967 39.8011 102.967 38.3219C102.967 37.3219 103.363 31.6553 106.884 31.6553C108.301 31.6553 108.447 32.5511 108.447 33.6761C108.447 36.0719 108.072 40.3428 104.592 40.3428ZM105.301 48.0303C106.551 48.3636 106.884 48.4469 106.884 49.0094C106.884 51.3219 103.738 53.0719 100.905 53.0719C99.2174 53.0719 98.1966 52.3219 98.1966 50.8011C98.1966 49.9053 98.4883 48.4678 101.238 47.0094L105.301 48.0303Z" fill="#C99A0C"/>
<path d="M140.952 47.1093L124.869 28.3436L125.739 27.5936L140.937 45.3228L177.859 0.666565L178.744 1.40094L140.952 47.1093Z" fill="#C99A0C"/>
</svg>
